<svg width="61" height="52" viewBox="0 0 61 52" fill="none" xmlns="http://www.w3.org/2000/svg">
<path d="M60.9999 34.1725C60.9999 47.9068 41.2014 41.4956 29.3077 49.7362C14.5671 59.9491 -8.24478 32.8117 3.02029 23.8491C18.8467 11.2576 11.2467 0 26.1138 0C40.981 0 60.9999 20.4382 60.9999 34.1725Z" fill="url(#paint0_linear)"/>
<path d="M30.5024 4.0957L10.4116 18.8817V42.3957H50.588V18.8817L30.5024 4.0957Z" fill="#223F72"/>
<path d="M11.8282 19.3479L26.651 29.1474L11.8282 40.4567V19.3479Z" fill="#B3CEFF"/>
<path d="M12.954 41.2089L30.5024 27.8218L48.0452 41.2089H12.954Z" fill="#B3CEFF"/>
<path d="M49.1704 40.4567L34.3506 29.1474L49.1709 19.3479V40.4567H49.1704Z" fill="#B3CEFF"/>
<path d="M34.9705 20.9446C34.5255 21.5049 33.9412 21.9166 33.2105 22.1945C32.4793 22.4727 31.6094 22.6114 30.6027 22.6114C29.5538 22.6114 28.6191 22.4463 27.8048 22.1163C26.9906 21.7832 26.3593 21.2588 25.9057 20.5333C25.4582 19.813 25.2283 19.0104 25.2283 18.132C25.2283 17.2268 25.4294 16.3527 25.8322 15.5197C26.2412 14.6816 26.8428 14.0299 27.6397 13.5727C28.4367 13.1084 29.4083 12.8781 30.5572 12.8781C31.9052 12.8781 32.96 13.226 33.7151 13.912C34.4688 14.6067 34.8442 15.4643 34.8442 16.4888C34.8442 17.061 34.7074 17.6147 34.4415 18.1489C34.1755 18.6793 33.8269 19.1106 33.3944 19.4243C33.0742 19.6708 32.8135 19.7882 32.6042 19.7882C32.5399 19.7882 32.4803 19.7626 32.4328 19.7101C32.3863 19.6546 32.3613 19.5828 32.3613 19.4748C32.3613 19.391 32.391 19.2112 32.451 18.9245L33.4103 14.4386H31.7301L31.5712 15.1332C31.214 14.5634 30.6572 14.2791 29.903 14.2791C28.8439 14.2791 27.9788 14.774 27.299 15.7603C26.7397 16.5676 26.4622 17.4583 26.4622 18.4446C26.4622 19.2349 26.6931 19.8733 27.1569 20.3522C27.6197 20.8264 28.2025 21.0663 28.9059 21.0663C29.5578 21.0663 30.1383 20.8259 30.6289 20.347C30.6874 20.5823 30.8103 20.7573 30.9856 20.8814C31.1657 21.0034 31.4281 21.0611 31.7796 21.0611C33.0849 21.0611 34.1512 20.5197 34.9865 19.4351C35.6528 18.5748 35.986 17.6131 35.986 16.5498C35.986 15.6587 35.7619 14.8358 35.3299 14.081C34.8871 13.3271 34.2555 12.7479 33.4255 12.3361C32.5949 11.9305 31.6457 11.7246 30.5828 11.7246C29.3221 11.7246 28.2074 11.9806 27.2304 12.4893C26.2511 12.9938 25.4791 13.7538 24.9188 14.7633C24.3547 15.7765 24.0773 16.8706 24.0763 18.0429C24.0763 19.1124 24.3197 20.1014 24.8132 21.0091C25.313 21.9158 26.0657 22.6011 27.084 23.0676C28.0999 23.5319 29.3039 23.7623 30.7049 23.7623C32.147 23.7623 33.3702 23.4893 34.3745 22.9389C35.2493 22.4548 35.8959 21.7923 36.3184 20.9443H34.9705V20.9446ZM30.9777 18.2339C30.8173 18.7241 30.621 19.0979 30.3973 19.3512C30.2447 19.5287 30.0814 19.6597 29.9211 19.742C29.7102 19.8599 29.4861 19.9171 29.2442 19.9171C28.9205 19.92 28.6536 19.7921 28.4324 19.5413C28.2163 19.29 28.1092 18.9044 28.1092 18.3747C28.1092 17.9777 28.1851 17.5205 28.3431 17.0075C28.501 16.4926 28.732 16.1007 29.0407 15.8201C29.3514 15.5418 29.6869 15.4032 30.0488 15.4032C30.3878 15.4056 30.6695 15.5329 30.8886 15.7866C31.1122 16.0378 31.2242 16.3994 31.2242 16.8713C31.224 17.2929 31.1403 17.7496 30.9777 18.2339Z" fill="url(#paint1_linear)"/>
<defs>
<linearGradient id="paint0_linear" x1="7.04673" y1="15.8957" x2="56.4207" y2="44.8134" gradientUnits="userSpaceOnUse">
<stop stop-color="#F59037"/>
<stop offset="0.2892" stop-color="#F6993A"/>
<stop offset="0.7685" stop-color="#F9B343"/>
<stop offset="0.9944" stop-color="#FAC148"/>
</linearGradient>
<linearGradient id="paint1_linear" x1="24.0761" y1="17.7438" x2="36.3181" y2="17.7438" gradientUnits="userSpaceOnUse">
<stop stop-color="#F59037"/>
<stop offset="0.2892" stop-color="#F6993A"/>
<stop offset="0.7685" stop-color="#F9B343"/>
<stop offset="0.9944" stop-color="#FAC148"/>
</linearGradient>
</defs>
</svg>
