<svg width="60" height="52" viewBox="0 0 60 52" fill="none" xmlns="http://www.w3.org/2000/svg">
<path d="M59.9999 34.1725C59.9999 47.9067 40.526 41.4957 28.8272 49.7362C14.3284 59.9491 -8.1097 32.8117 2.97081 23.8491C18.5376 11.2577 11.0623 0 25.6857 0C40.3091 0 59.9999 20.4381 59.9999 34.1725Z" fill="url(#paint0_linear)"/>
<path d="M36.2893 48.851H20.9514C18.8671 48.851 17.1617 47.142 17.1617 45.0531V10.5736C17.1617 8.4847 18.8671 6.77563 20.9514 6.77563H36.2893C38.3736 6.77563 40.079 8.4847 40.079 10.5736V45.0529C40.079 47.1418 38.3736 48.851 36.2893 48.851Z" fill="#223F72"/>
<path d="M36.5232 47.3386H20.7173C19.5974 47.3386 18.6895 46.4287 18.6895 45.3063V10.3888C18.6895 9.26634 19.5974 8.35645 20.7173 8.35645H36.5232C37.6432 8.35645 38.5511 9.26634 38.5511 10.3888V45.3061C38.5511 46.4285 37.6432 47.3386 36.5232 47.3386Z" fill="#B3CEFF"/>
<path d="M34.1075 8.35645C34.1075 9.39051 33.2631 10.2367 32.2313 10.2367H25.0099C23.9781 10.2367 23.1338 9.39051 23.1338 8.35645" fill="#223F72"/>
<path d="M23.3551 22.2767L27.2061 20.0667C28.1498 19.525 29.3095 19.5271 30.2514 20.072L34.0944 22.2956C35.0413 22.8434 35.6236 23.8567 35.6218 24.9523L35.6141 29.3641C35.6123 30.4599 35.0261 31.471 34.0774 32.0155L30.2264 34.2255C29.2827 34.7672 28.123 34.7651 27.1811 34.2202L23.3381 31.9965C22.3912 31.4488 21.8088 30.4355 21.8107 29.3399L21.8184 24.928C21.8204 23.8323 22.4064 22.821 23.3551 22.2767Z" fill="#4260A4"/>
<path d="M32.4868 29.5015L31.2365 28.2482C30.9875 27.9997 30.575 28.0072 30.3172 28.2655L29.6874 28.8968C29.6476 28.8748 29.6063 28.8518 29.5631 28.8276C29.1654 28.6067 28.6208 28.3038 28.0479 27.7294C27.4733 27.1535 27.1708 26.6072 26.9498 26.2082C26.9265 26.1659 26.9041 26.1251 26.882 26.0865L27.3047 25.6635L27.5125 25.4548C27.7706 25.1961 27.7777 24.7829 27.5293 24.5335L26.279 23.2802C26.0306 23.0313 25.6178 23.0388 25.3597 23.2975L25.0073 23.6527L25.0168 23.6623C24.8986 23.8133 24.7999 23.9876 24.7264 24.1757C24.6588 24.3546 24.6165 24.5252 24.5972 24.6964C24.4321 26.0681 25.0577 27.3216 26.7551 29.023C29.1014 31.3743 30.9922 31.1968 31.0738 31.188C31.2515 31.1666 31.4217 31.1241 31.5948 31.0569C31.7806 30.984 31.9545 30.8853 32.1052 30.7673L32.1129 30.7742L32.47 30.4239C32.7277 30.1645 32.735 29.7511 32.4868 29.5015Z" fill="url(#paint1_linear)"/>
<defs>
<linearGradient id="paint0_linear" x1="6.93123" y1="15.8957" x2="55.9025" y2="44.1073" gradientUnits="userSpaceOnUse">
<stop stop-color="#F59037"/>
<stop offset="0.2892" stop-color="#F6993A"/>
<stop offset="0.7685" stop-color="#F9B343"/>
<stop offset="0.9944" stop-color="#FAC148"/>
</linearGradient>
<linearGradient id="paint1_linear" x1="24.5721" y1="27.146" x2="32.6683" y2="27.146" gradientUnits="userSpaceOnUse">
<stop stop-color="#F59037"/>
<stop offset="0.2892" stop-color="#F6993A"/>
<stop offset="0.7685" stop-color="#F9B343"/>
<stop offset="0.9944" stop-color="#FAC148"/>
</linearGradient>
</defs>
</svg>
