<svg width="9" height="7" viewBox="0 0 9 7" fill="none" xmlns="http://www.w3.org/2000/svg">
<path d="M0.103846 3.85C0.0346154 3.78 0 3.675 0 3.605C0 3.535 0.0346154 3.43 0.103846 3.36L0.588462 2.87C0.726923 2.73 0.934615 2.73 1.07308 2.87L1.10769 2.905L3.01154 4.97C3.08077 5.04 3.18462 5.04 3.25385 4.97L7.89231 0.105H7.92692C8.06538 -0.035 8.27308 -0.035 8.41154 0.105L8.89615 0.595C9.03462 0.735 9.03462 0.945 8.89615 1.085L3.35769 6.895C3.28846 6.965 3.21923 7 3.11538 7C3.01154 7 2.94231 6.965 2.87308 6.895L0.173077 3.955L0.103846 3.85Z" fill="#4074B0"/>
</svg>
