<svg width="120" height="120" viewBox="0 0 120 120" fill="none" xmlns="http://www.w3.org/2000/svg">
<path d="M37.9606 80.4348V47.8556H30.4292V39.5068H48.3531V80.4348H37.9606Z" fill="#5E5E5E"/>
<path d="M87.411 50.0741C87.411 53.6355 85.4844 56.7882 82.2733 58.54C86.7684 60.4079 89.5712 64.32 89.5712 68.8738C89.5712 76.2301 83.0319 80.9011 72.8149 80.9011C62.5975 80.9011 56.0586 76.2885 56.0586 69.0493C56.0586 64.3783 59.0945 60.4079 63.8235 58.54C60.3789 56.613 58.1604 53.344 58.1604 49.7826C58.1604 43.243 63.8823 39.0981 72.7565 39.0981C81.7475 39.0981 87.411 43.3601 87.411 50.0741ZM65.8669 67.9985C65.8669 71.4434 68.3194 73.3701 72.8149 73.3701C77.3104 73.3701 79.8209 71.5022 79.8209 67.9985C79.8209 64.6126 77.3104 62.6852 72.8149 62.6852C68.319 62.6852 65.8669 64.6122 65.8669 67.9985ZM66.9182 50.658C66.9182 53.5779 69.02 55.2118 72.8149 55.2118C76.6098 55.2118 78.7116 53.5775 78.7116 50.658C78.7116 47.6228 76.6098 45.9293 72.8149 45.9293C69.0196 45.9293 66.9182 47.6228 66.9182 50.658Z" fill="#5E5E5E"/>
<path d="M106.865 44.1273C108.593 49.2267 109.469 54.5604 109.469 60.0002C109.469 87.2767 87.2777 109.468 60.0008 109.468C32.7239 109.468 10.5322 87.2767 10.5322 60.0002C10.5322 32.7229 32.7235 10.5323 60.0004 10.5323C65.441 10.5323 70.7747 11.408 75.8733 13.1365V2.12806C70.7232 0.716286 65.4042 0 60.0008 0C26.917 0 0.000976562 26.916 0.000976562 60.0002C0.000976562 93.0844 26.917 120 60.0008 120C93.0846 120 120 93.0844 120 60.0002C120 54.5972 119.284 49.2778 117.873 44.1273H106.865Z" fill="#5E5E5E"/>
<path d="M103.87 16.096V4.59131H95.5974V16.096H84.1616V24.3682H95.5974V35.8725H103.87V24.3682H115.374V16.096H103.87Z" fill="#5E5E5E"/>
</svg>
