<svg width="127" height="120" viewBox="0 0 127 120" fill="none" xmlns="http://www.w3.org/2000/svg">
<path d="M127 72.2033C127 101.222 85.8123 87.6762 61.0695 105.088C30.4042 126.667 -17.0525 69.328 6.38298 50.3907C39.307 23.7862 23.4967 0 54.4255 0C85.3542 0 127 43.1838 127 72.2033Z" fill="url(#paint0_linear)"/>
<path d="M73.3197 37.5453H48.7603C45.6281 37.5453 43.0889 35.003 43.0889 31.8671V18.2055C43.0889 15.0696 45.6281 12.5273 48.7603 12.5273H73.3197C76.4518 12.5273 78.9911 15.0696 78.9911 18.2055V31.8671C78.9907 35.003 76.4518 37.5453 73.3197 37.5453Z" fill="white"/>
<path d="M48.1262 43.2962V34.7339H58.6808L48.1262 43.2962Z" fill="white"/>
<path d="M60.0662 84.2934H83.2598C86.392 84.2934 88.9312 81.7511 88.9312 78.6152V65.9052C88.9312 62.7693 86.392 60.2271 83.2598 60.2271H60.0662C56.934 60.2271 54.3948 62.7693 54.3948 65.9052V78.6152C54.3948 81.7511 56.934 84.2934 60.0662 84.2934Z" fill="white"/>
<path d="M84.0493 89.8257V81.3179H73.9324L84.0493 89.8257Z" fill="white"/>
<path d="M33.9996 17.2333C33.9996 17.2333 26.9443 12.5663 23.6056 21.814C23.001 23.489 18.7939 23.4886 18.2191 26.7917C17.9225 28.4971 16.5865 29.8084 14.8667 29.9861C10.5836 30.4287 3.92314 32.3157 2.51119 39.6538C1.4335 45.2549 4.19992 47.5355 7.17777 48.4247C9.36497 49.0779 10.73 51.3064 10.172 53.5216C9.63696 55.6467 10.1553 58.1595 13.7726 60.3048C21.8785 65.1122 30.9191 50.7094 30.9191 50.7094L33.8956 24.929L33.9996 17.2333Z" fill="url(#paint1_linear)"/>
<path d="M42.2921 81.3278C42.2921 81.3278 48.6043 70.4078 51.2955 63.6119C52.7502 59.9386 52.3294 55.7885 50.187 52.4697C46.2745 46.4089 40.7628 40.5598 40.1306 39.5833C39.161 38.0864 29.3615 41.0377 29.3615 41.0377C29.3615 41.0377 13.7162 59.2666 12.3535 82.764L21.6583 82.9185C21.6583 82.9185 24.2215 72.9628 27.6283 66.1114C27.6283 66.1114 22.3439 80.0525 23.4082 84.812L42.2921 81.3278Z" fill="#A4C5FF"/>
<path d="M59.9434 79.7236L51.2633 74.4873L44.2638 78.7676C44.2638 78.7676 35.8062 82.743 30.3328 82.8578C24.8595 82.9722 24.8595 82.9722 24.8595 82.9722L12.3539 82.7646L12.0456 88.3856C11.9673 89.8126 12.8469 91.1132 14.1962 91.5797C15.3943 91.9938 16.7833 92.4278 17.6192 92.535C19.3219 92.7529 52.4437 82.5379 52.4437 82.5379L59.9434 79.7236Z" fill="url(#paint2_linear)"/>
<path d="M32.6482 27.2367L29.6475 41.4614C30.8688 44.0157 37.6381 42.1101 38.2115 40.2026C38.27 40.0087 38.2755 39.8022 38.2598 39.6001L39.8031 30.2311C39.7381 29.3806 36.7561 27.3268 35.922 27.1541L32.8894 26.5263C31.7211 26.2848 35.9237 25.0047 32.6482 27.2367Z" fill="url(#paint3_linear)"/>
<path d="M45.1601 20.4314C45.1601 20.4314 47.1208 24.364 45.4078 30.5988C43.6948 36.8336 40.38 37.5481 38.1797 36.1499C35.9799 34.7517 33.0865 32.1964 32.4434 26.6683C31.8005 21.1401 42.484 15.4681 45.1601 20.4314Z" fill="url(#paint4_linear)"/>
<path d="M36.5563 26.0821C36.5563 26.0821 39.8006 17.5935 45.6239 22.4533L46.1676 24.5633C46.1676 24.5633 51.3637 22.7698 49.3685 18.0761C47.3732 13.382 42.0994 11.3237 36.623 14.7354C31.1466 18.147 28.2166 21.0616 28.7572 25.4043C29.2978 29.7469 32.4798 28.077 32.4798 28.077C32.4798 28.077 32.9335 24.838 34.4354 24.1848C35.9374 23.5316 36.0366 25.9595 36.0366 25.9595L36.5563 26.0821Z" fill="url(#paint5_linear)"/>
<path d="M35.2911 26.2525C35.2911 26.2525 36.9847 21.8986 34.2805 21.8921C31.5764 21.8856 32.9045 26.0751 33.5261 27.5963L35.2911 26.2525Z" fill="url(#paint6_linear)"/>
<path d="M120.555 95.6105C120.555 95.6105 94.8324 85.0735 80.5593 98.4645C80.5891 98.4625 80.6246 98.5162 80.6647 98.6156C80.6284 98.5666 80.5962 98.5125 80.5593 98.4645C80.5593 98.4645 78.9688 104.666 75.1404 110.272C78.8819 114.369 83.8026 117.474 89.5616 118.998C103.958 122.807 118.675 115.438 124.538 102.242C122.48 98.0963 120.555 95.6105 120.555 95.6105Z" fill="#84A8F2"/>
<path d="M92.1875 81.1504L92.2854 94.7867C92.2963 96.3185 93.6378 97.4947 95.1565 97.3084C96.7952 97.1073 98.8897 96.7949 100.74 96.3483C102.715 95.8715 103.843 93.7889 103.18 91.8662L98.8261 79.2363L92.1875 81.1504Z" fill="url(#paint7_linear)"/>
<path d="M87.1772 69.4838C87.0882 69.6941 86.2278 84.7642 86.2278 84.7642L94.8329 85.0731L97.768 70.9111C97.7676 70.9108 88.6699 65.9656 87.1772 69.4838Z" fill="url(#paint8_linear)"/>
<path d="M95.1199 73.5393L94.1582 81.1158C94.1458 81.2127 94.1212 81.3055 94.0829 81.396C93.8496 81.9481 92.9077 83.7886 91.0855 82.7089C89.4324 81.7292 87.9089 80.8596 86.6855 80.9068C86.1364 80.9281 85.6937 81.362 85.6625 81.9115C85.5849 83.2809 85.4665 86.3695 85.7727 89.0687C85.8346 89.6164 86.3091 90.0209 86.8596 90.0069C88.5182 89.9651 92.0137 89.7784 94.7908 88.9687C95.1671 88.8591 95.4538 88.5566 95.5379 88.1733C95.9478 86.3048 97.215 80.6307 97.8124 79.1044C98.3731 77.6716 100.418 77.2657 101.289 77.1564C101.575 77.1208 101.831 76.9708 102.002 76.7392C102.608 75.9213 103.67 73.938 101.235 72.3661C100.725 72.0373 100.59 71.3577 100.934 70.8576C101.619 69.8622 102.229 68.2283 100.412 66.7585C98.5657 65.2647 96.7063 65.9686 95.6218 66.6533C95.1835 66.9301 94.6207 66.8414 94.2676 66.4612C94.0668 66.2447 93.7692 66.1125 93.3319 66.2474C92.7428 66.429 92.1294 66.0368 92.01 65.4312C91.7804 64.2676 91.05 62.8934 88.9066 62.7022C85.1035 62.3631 83.6259 66.2909 83.9611 68.9103C84.2964 71.5296 88.4406 71.6625 90.715 70.9884C92.4441 70.476 94.126 71.9379 94.8328 72.6679C95.0566 72.8994 95.1606 73.2197 95.1199 73.5393Z" fill="url(#paint9_linear)"/>
<path d="M97.4343 81.8596C97.4343 81.8596 97.0457 77.2703 98.8534 76.6496C100.661 76.0293 102.796 77.1648 101.494 80.0702C99.8726 83.6839 97.4343 81.8596 97.4343 81.8596Z" fill="url(#paint10_linear)"/>
<path d="M57.5474 20.1733H73.5828C74.228 20.1733 74.7559 19.6448 74.7559 18.9988C74.7559 18.3527 74.228 17.8242 73.5828 17.8242H57.5474C56.9022 17.8242 56.3743 18.3527 56.3743 18.9988C56.3743 19.6448 56.9022 20.1733 57.5474 20.1733Z" fill="url(#paint11_linear)"/>
<path d="M53.3648 26.2104H73.5826C74.2279 26.2104 74.7558 25.6819 74.7558 25.0359C74.7558 24.3899 74.2279 23.8613 73.5826 23.8613H53.3648C52.7195 23.8613 52.1917 24.3899 52.1917 25.0359C52.1917 25.6819 52.7195 26.2104 53.3648 26.2104Z" fill="url(#paint12_linear)"/>
<path d="M53.3648 32.0615H63.1174C63.7626 32.0615 64.2905 31.533 64.2905 30.887C64.2905 30.2409 63.7626 29.7124 63.1174 29.7124H53.3648C52.7195 29.7124 52.1917 30.2409 52.1917 30.887C52.1917 31.533 52.7195 32.0615 53.3648 32.0615Z" fill="url(#paint13_linear)"/>
<path d="M67.782 32.0615H73.5828C74.228 32.0615 74.7559 31.533 74.7559 30.887C74.7559 30.2409 74.228 29.7124 73.5828 29.7124H67.782C67.1368 29.7124 66.6089 30.2409 66.6089 30.887C66.6089 31.533 67.1368 32.0615 67.782 32.0615Z" fill="url(#paint14_linear)"/>
<path d="M60.1961 67.8999H69.9487C70.5939 67.8999 71.1218 67.3713 71.1218 66.7253C71.1218 66.0793 70.5939 65.5508 69.9487 65.5508H60.1961C59.5508 65.5508 59.0229 66.0793 59.0229 66.7253C59.0229 67.371 59.5508 67.8999 60.1961 67.8999Z" fill="url(#paint15_linear)"/>
<path d="M74.6133 67.8999H80.4141C81.0593 67.8999 81.5872 67.3713 81.5872 66.7253C81.5872 66.0793 81.0593 65.5508 80.4141 65.5508H74.6133C73.9681 65.5508 73.4402 66.0793 73.4402 66.7253C73.4402 67.371 73.9681 67.8999 74.6133 67.8999Z" fill="url(#paint16_linear)"/>
<path d="M79.1673 73.435H80.414C81.0592 73.435 81.5871 72.9065 81.5871 72.2605C81.5871 71.6145 81.0592 71.0859 80.414 71.0859H79.1673C78.522 71.0859 77.9941 71.6145 77.9941 72.2605C77.9941 72.9065 78.522 73.435 79.1673 73.435Z" fill="url(#paint17_linear)"/>
<path d="M60.1961 73.435H75.1544C75.7997 73.435 76.3276 72.9065 76.3276 72.2605C76.3276 71.6145 75.7997 71.0859 75.1544 71.0859H60.1961C59.5508 71.0859 59.0229 71.6145 59.0229 72.2605C59.0229 72.9065 59.5508 73.435 60.1961 73.435Z" fill="url(#paint18_linear)"/>
<path d="M60.1961 78.9707H80.4139C81.0592 78.9707 81.5871 78.4422 81.5871 77.7961C81.5871 77.1501 81.0592 76.6216 80.4139 76.6216H60.1961C59.5508 76.6216 59.0229 77.1501 59.0229 77.7961C59.0229 78.4422 59.5508 78.9707 60.1961 78.9707Z" fill="url(#paint19_linear)"/>
<defs>
<linearGradient id="paint0_linear" x1="14.7593" y1="33.586" x2="118.283" y2="93.2839" gradientUnits="userSpaceOnUse">
<stop stop-color="#F59037"/>
<stop offset="0.2892" stop-color="#F6993A"/>
<stop offset="0.7685" stop-color="#F9B343"/>
<stop offset="0.9944" stop-color="#FAC148"/>
</linearGradient>
<linearGradient id="paint1_linear" x1="37.4175" y1="-0.765252" x2="23.9334" y2="28.7132" gradientUnits="userSpaceOnUse">
<stop stop-color="#2B3582"/>
<stop offset="1" stop-color="#150E42"/>
</linearGradient>
<linearGradient id="paint2_linear" x1="29.5324" y1="83.5684" x2="-17.0932" y2="97.2249" gradientUnits="userSpaceOnUse">
<stop stop-color="#F9B776"/>
<stop offset="1" stop-color="#F47960"/>
</linearGradient>
<linearGradient id="paint3_linear" x1="42.0136" y1="55.5984" x2="35.9987" y2="39.1079" gradientUnits="userSpaceOnUse">
<stop stop-color="#F9B776"/>
<stop offset="1" stop-color="#F47960"/>
</linearGradient>
<linearGradient id="paint4_linear" x1="36.1639" y1="42.0909" x2="45.0875" y2="-2.72621" gradientUnits="userSpaceOnUse">
<stop stop-color="#F9B776"/>
<stop offset="1" stop-color="#F47960"/>
</linearGradient>
<linearGradient id="paint5_linear" x1="55.0541" y1="12.6087" x2="28.3064" y2="26.6263" gradientUnits="userSpaceOnUse">
<stop stop-color="#2B3582"/>
<stop offset="1" stop-color="#150E42"/>
</linearGradient>
<linearGradient id="paint6_linear" x1="30.8095" y1="41.024" x2="39.7329" y2="-3.79225" gradientUnits="userSpaceOnUse">
<stop stop-color="#F9B776"/>
<stop offset="1" stop-color="#F47960"/>
</linearGradient>
<linearGradient id="paint7_linear" x1="99.8149" y1="79.4189" x2="91.0157" y2="113.48" gradientUnits="userSpaceOnUse">
<stop stop-color="#F9B776"/>
<stop offset="1" stop-color="#F47960"/>
</linearGradient>
<linearGradient id="paint8_linear" x1="90.2349" y1="70.94" x2="97.2238" y2="98.7941" gradientUnits="userSpaceOnUse">
<stop stop-color="#F9B776"/>
<stop offset="1" stop-color="#F47960"/>
</linearGradient>
<linearGradient id="paint9_linear" x1="104.551" y1="78.5764" x2="44.5886" y2="70.5881" gradientUnits="userSpaceOnUse">
<stop stop-color="#2B3582"/>
<stop offset="1" stop-color="#150E42"/>
</linearGradient>
<linearGradient id="paint10_linear" x1="106.466" y1="97.5565" x2="99.2475" y2="79.0142" gradientUnits="userSpaceOnUse">
<stop stop-color="#F9B776"/>
<stop offset="1" stop-color="#F47960"/>
</linearGradient>
<linearGradient id="paint11_linear" x1="56.3742" y1="18.9988" x2="74.756" y2="18.9988" gradientUnits="userSpaceOnUse">
<stop stop-color="#F59037"/>
<stop offset="0.2892" stop-color="#F6993A"/>
<stop offset="0.7685" stop-color="#F9B343"/>
<stop offset="0.9944" stop-color="#FAC148"/>
</linearGradient>
<linearGradient id="paint12_linear" x1="52.1917" y1="25.0359" x2="74.7558" y2="25.0359" gradientUnits="userSpaceOnUse">
<stop stop-color="#F59037"/>
<stop offset="0.2892" stop-color="#F6993A"/>
<stop offset="0.7685" stop-color="#F9B343"/>
<stop offset="0.9944" stop-color="#FAC148"/>
</linearGradient>
<linearGradient id="paint13_linear" x1="52.1917" y1="30.8868" x2="64.2906" y2="30.8868" gradientUnits="userSpaceOnUse">
<stop stop-color="#F59037"/>
<stop offset="0.2892" stop-color="#F6993A"/>
<stop offset="0.7685" stop-color="#F9B343"/>
<stop offset="0.9944" stop-color="#FAC148"/>
</linearGradient>
<linearGradient id="paint14_linear" x1="66.6088" y1="30.8868" x2="74.756" y2="30.8868" gradientUnits="userSpaceOnUse">
<stop stop-color="#F59037"/>
<stop offset="0.2892" stop-color="#F6993A"/>
<stop offset="0.7685" stop-color="#F9B343"/>
<stop offset="0.9944" stop-color="#FAC148"/>
</linearGradient>
<linearGradient id="paint15_linear" x1="59.0229" y1="66.7251" x2="71.1219" y2="66.7251" gradientUnits="userSpaceOnUse">
<stop stop-color="#F59037"/>
<stop offset="0.2892" stop-color="#F6993A"/>
<stop offset="0.7685" stop-color="#F9B343"/>
<stop offset="0.9944" stop-color="#FAC148"/>
</linearGradient>
<linearGradient id="paint16_linear" x1="73.44" y1="66.7251" x2="81.5872" y2="66.7251" gradientUnits="userSpaceOnUse">
<stop stop-color="#F59037"/>
<stop offset="0.2892" stop-color="#F6993A"/>
<stop offset="0.7685" stop-color="#F9B343"/>
<stop offset="0.9944" stop-color="#FAC148"/>
</linearGradient>
<linearGradient id="paint17_linear" x1="77.9941" y1="72.2603" x2="81.5872" y2="72.2603" gradientUnits="userSpaceOnUse">
<stop stop-color="#F59037"/>
<stop offset="0.2892" stop-color="#F6993A"/>
<stop offset="0.7685" stop-color="#F9B343"/>
<stop offset="0.9944" stop-color="#FAC148"/>
</linearGradient>
<linearGradient id="paint18_linear" x1="59.0229" y1="72.2603" x2="76.3276" y2="72.2603" gradientUnits="userSpaceOnUse">
<stop stop-color="#F59037"/>
<stop offset="0.2892" stop-color="#F6993A"/>
<stop offset="0.7685" stop-color="#F9B343"/>
<stop offset="0.9944" stop-color="#FAC148"/>
</linearGradient>
<linearGradient id="paint19_linear" x1="59.0229" y1="77.796" x2="81.5871" y2="77.796" gradientUnits="userSpaceOnUse">
<stop stop-color="#F59037"/>
<stop offset="0.2892" stop-color="#F6993A"/>
<stop offset="0.7685" stop-color="#F9B343"/>
<stop offset="0.9944" stop-color="#FAC148"/>
</linearGradient>
</defs>
</svg>
