<svg width="87" height="45" viewBox="0 0 87 45" fill="none" xmlns="http://www.w3.org/2000/svg">
<path d="M58.8524 17.2697C60.1311 18.2153 60.4608 19.1173 60.4608 21.656V30.2576H57.6386L57.6424 21.7623C57.6424 21.0047 57.6633 20.3192 57.3127 19.7989C56.985 19.309 56.3332 19.1078 55.8664 19.1249C54.8145 19.1704 54.2485 19.9148 54.2485 20.5888V30.2576H51.4244V11.729H54.2485V17.414C54.8488 16.9355 55.7139 16.6469 56.6172 16.6336C57.4499 16.6203 58.3055 16.8672 58.8524 17.2697ZM35.9033 23.6345C35.9033 21.8193 35.8328 21.0616 35.8309 21.0465C35.8157 20.0325 35.2859 19.009 34.1273 19.009C32.9725 19.009 32.439 20.0325 32.4237 21.0541C32.4237 21.0616 32.3532 21.8193 32.3532 23.6345C32.3532 25.4498 32.4218 26.0631 32.4237 26.0707V26.0688C32.4771 27.0505 32.9535 28.1898 34.1273 28.1898C35.3031 28.1898 35.7356 27.1227 35.8328 26.1163C35.8481 25.9587 35.9033 25.4498 35.9033 23.6345ZM38.7122 23.6345C38.7122 24.7112 38.6531 25.615 38.6417 25.8182C38.4568 28.7234 36.7704 30.5633 34.1235 30.5633C31.4747 30.5633 29.7864 28.7537 29.6053 25.822C29.5901 25.5979 29.5234 24.7112 29.5329 23.6345C29.5482 22.1573 29.5863 21.694 29.6111 21.4433C29.9007 18.297 31.4995 16.6355 34.1235 16.6355C35.9738 16.6355 38.2301 17.4843 38.6322 21.449C38.6703 21.8212 38.7122 23.1465 38.7122 23.6345ZM65.1695 21.9655H68.691C68.6948 21.6921 68.6663 21.4357 68.6415 21.0522C68.5919 20.3173 68.2756 18.9957 66.9207 19.0071C65.7793 19.0185 65.2819 19.9356 65.2038 21.0446C65.1905 21.2249 65.1905 21.3541 65.1695 21.9655ZM71.3627 25.6796C71.1816 28.7537 69.4723 30.5633 66.915 30.5633C64.3539 30.5633 62.6446 28.7044 62.4731 25.822C62.4597 25.6131 62.3988 24.7112 62.3988 23.6345C62.3988 22.1193 62.4464 21.7243 62.475 21.4452C62.7875 18.2837 64.3749 16.6355 66.915 16.6355C68.2413 16.6355 69.358 17.1482 70.1488 18.1204C70.8291 18.9597 71.2769 20.2603 71.3627 21.4452C71.4179 22.218 71.4256 22.5845 71.4332 22.8067C71.4541 23.3668 71.4408 24.3029 71.4408 24.3029H65.1485C65.1447 25.4403 65.2038 25.7745 65.2209 26.0783C65.301 27.1303 65.7488 28.1917 66.915 28.1917C68.2909 28.1917 68.5519 26.7923 68.6281 26.1391C68.6605 25.8865 68.6529 25.6796 68.6529 25.6796H71.3627ZM21.1769 14.2468V19.4799H22.648C24.3459 19.4799 24.7041 18.0577 24.7861 17.245C24.7937 17.1482 24.7994 17.0608 24.7994 16.814C24.7994 16.5994 24.7861 16.4855 24.7861 16.383C24.7518 15.0139 23.9629 14.2468 22.5108 14.2468H21.1769ZM28.0008 30.2652H25.2148C25.2148 30.2652 25.1005 29.743 25.0738 29.1297L24.7861 24.827C24.6336 22.6339 23.6237 21.8497 22.728 21.8497H21.1769L21.175 30.2576H18.389V11.8771L22.7014 11.879C25.3406 11.9056 27.5835 13.1683 27.5968 16.7646C27.6064 19.1268 26.6193 20.2603 25.8551 20.718C26.9127 21.3332 27.4425 22.5275 27.5702 24.5669C27.5702 24.5669 27.8617 29.1202 27.8617 29.1164C27.8808 29.7582 28.0008 30.2652 28.0008 30.2652ZM46.8739 25.5523C46.8624 25.7574 46.8491 25.9416 46.8377 26.0707C46.7595 27.0942 46.3955 28.1898 45.134 28.1898C43.9602 28.1898 43.4952 27.003 43.4095 26.1334C43.358 25.6036 43.3695 25.1954 43.3599 23.6345C43.3466 21.8193 43.4076 21.3503 43.4324 21.0541C43.5333 19.9072 43.9793 19.0166 45.134 19.009C46.325 19.0014 46.8224 20.0325 46.8377 21.0465C46.8377 21.0541 46.8624 21.3009 46.8834 21.8402H49.6713C49.6656 21.6503 49.6541 21.4984 49.6484 21.4053C49.3302 17.5659 46.9825 16.6355 45.1321 16.6355C42.5043 16.6355 40.9055 18.297 40.6178 21.4433C40.5949 21.6921 40.5549 22.1554 40.5397 23.6345C40.532 24.7112 40.6006 25.5979 40.614 25.822C40.7931 28.7537 42.4834 30.5538 45.1321 30.5633C47.8743 30.5728 49.3835 28.9038 49.6484 25.8182C49.656 25.7061 49.6732 25.6302 49.6637 25.5523H46.8739ZM20.6109 2.27288H66.4615L83.993 22.7117L66.4672 42.8752H20.609L3.01084 22.6415L20.6109 2.27288ZM67.5667 0H19.5038L0 22.5731L19.5038 45H67.5667L87 22.6434L67.5667 0Z" fill="#4074B0"/>
</svg>
