<svg width="17" height="17" viewBox="0 0 17 17" fill="none" xmlns="http://www.w3.org/2000/svg">
<path d="M8.54823 0C3.88048 0 0.0964355 3.67517 0.0964355 8.20863C0.0964355 12.7421 3.88048 16.4173 8.54823 16.4173C13.216 16.4173 17 12.7421 17 8.20863C17 3.67517 13.2162 0 8.54823 0ZM8.54823 13.6782C5.43797 13.6782 2.91663 11.2294 2.91663 8.20863C2.91663 5.18785 5.43797 2.73906 8.54823 2.73906C11.6585 2.73906 14.1798 5.18785 14.1798 8.20863C14.1798 11.2294 11.6585 13.6782 8.54823 13.6782Z" fill="white"/>
<path d="M0.476043 7.53744C-0.158518 6.92113 -0.158518 5.91262 0.476043 5.29632L5.14465 0.762033C5.77921 0.145729 6.8176 0.145729 7.45216 0.762033C8.08672 1.37834 8.08672 2.38685 7.45216 3.00315L2.78355 7.53744C2.14899 8.15374 1.1106 8.15374 0.476043 7.53744Z" fill="white"/>
</svg>
