<svg width="127" height="120" viewBox="0 0 127 120" fill="none" xmlns="http://www.w3.org/2000/svg">
<path d="M127 82.5118C127 111.393 85.7802 97.9111 61.018 115.24C30.3284 136.716 -17.1651 79.65 6.2884 60.8032C39.2381 34.3253 23.4155 10.6523 54.3684 10.6523C85.3213 10.6523 127 53.6306 127 82.5118Z" fill="url(#paint0_linear)"/>
<path d="M64.1813 114.113H15.0238C12.9448 114.113 11.2592 112.435 11.2592 110.365V46.7364C11.2592 41.6416 15.4076 37.5112 20.5246 37.5112H64.1813C66.2603 37.5112 67.9459 39.1895 67.9459 41.2594V110.365C67.9459 112.435 66.2606 114.113 64.1813 114.113Z" fill="#4260A4"/>
<path d="M82.3798 42.8343H70.3197V37.3799H17.0124C14.0387 37.3799 11.5927 39.7662 11.2824 42.8343H7.73561C6.10857 42.8343 4.78967 43.9416 4.78967 45.5615C4.78967 47.1815 6.10857 48.2888 7.73561 48.2888H11.2475H70.7689H82.3794C84.0065 48.2888 85.3254 47.1815 85.3254 45.5615C85.3257 43.9416 84.0068 42.8343 82.3798 42.8343Z" fill="#223F72"/>
<path d="M49.6423 59.2192H11.2592V99.2971H49.6423V59.2192Z" fill="#A4C5FF"/>
<path d="M56.6555 0H105.652C110.766 0 114.911 4.12765 114.911 9.21936V59.993C114.911 71.7504 105.339 81.2817 93.5298 81.2817H68.7779C56.9692 81.2817 47.3962 71.7504 47.3962 59.993V9.21936C47.3962 4.12765 51.5416 0 56.6555 0Z" fill="#84A8F2"/>
<path d="M81.882 68.8828H81.4088C74.6616 68.8828 69.1919 74.3287 69.1919 81.0466V81.2821H94.0989V81.0466C94.0989 74.3287 88.6291 68.8828 81.882 68.8828Z" fill="#4260A4"/>
<path d="M87.8543 75.6416H75.4368V96.8508H87.8543V75.6416Z" fill="#E2E2E2"/>
<path d="M87.8543 75.6416H75.4368V85.2649H87.8543V75.6416Z" fill="white"/>
<path d="M102.585 62.5257H59.7844C58.208 62.5257 56.9302 61.2534 56.9302 59.6839V13.791C56.9302 12.2215 58.208 10.9492 59.7844 10.9492H102.585C104.162 10.9492 105.44 12.2215 105.44 13.791V59.6836C105.44 61.2531 104.162 62.5257 102.585 62.5257Z" fill="#B3CEFF"/>
<path d="M97.1318 51.067H65.225C64.3604 51.067 63.6599 50.3692 63.6599 49.5087V49.4484C63.6599 48.5876 64.3608 47.8901 65.225 47.8901H97.1318C97.9963 47.8901 98.6969 48.588 98.6969 49.4484V49.5087C98.6969 50.3695 97.996 51.067 97.1318 51.067Z" fill="#223F72"/>
<path d="M97.1318 57.9225H65.225C64.3604 57.9225 63.6599 57.2246 63.6599 56.3642V56.3039C63.6599 55.4431 64.3608 54.7456 65.225 54.7456H97.1318C97.9963 54.7456 98.6969 55.4434 98.6969 56.3039V56.3642C98.6969 57.225 97.996 57.9225 97.1318 57.9225Z" fill="#223F72"/>
<path d="M65.6255 28.3351C65.1174 28.3351 64.7052 27.925 64.7052 27.4187V20.2308C64.7052 19.7249 65.1171 19.3145 65.6255 19.3145C66.1337 19.3145 66.5459 19.7246 66.5459 20.2308V27.4191C66.5459 27.925 66.1337 28.3351 65.6255 28.3351Z" fill="#223F72"/>
<path d="M65.6255 39.3994C65.1174 39.3994 64.7052 38.9893 64.7052 38.483V31.2948C64.7052 30.7889 65.1171 30.3784 65.6255 30.3784C66.1337 30.3784 66.5459 30.7885 66.5459 31.2948V38.483C66.5459 38.9889 66.1337 39.3994 65.6255 39.3994Z" fill="#223F72"/>
<path d="M76.5263 39.3994C76.0182 39.3994 75.606 38.9893 75.606 38.483V31.2948C75.606 30.7889 76.0179 30.3784 76.5263 30.3784C77.0344 30.3784 77.4467 30.7885 77.4467 31.2948V38.483C77.4467 38.9889 77.0344 39.3994 76.5263 39.3994Z" fill="#223F72"/>
<path d="M66.5459 18.3983C66.5459 17.8924 66.9578 17.4819 67.4663 17.4819H74.6859C75.194 17.4819 75.6063 17.892 75.6063 18.3983C75.6063 18.9042 75.1944 19.3146 74.6859 19.3146H67.4663C66.9578 19.3146 66.5459 18.9045 66.5459 18.3983Z" fill="#223F72"/>
<path d="M66.5459 29.4622C66.5459 28.9563 66.9578 28.5459 67.4663 28.5459H74.6859C75.194 28.5459 75.6063 28.956 75.6063 29.4622C75.6063 29.9681 75.1944 30.3786 74.6859 30.3786H67.4663C66.9578 30.3782 66.5459 29.9681 66.5459 29.4622Z" fill="#223F72"/>
<path d="M66.5459 40.3153C66.5459 39.8094 66.9578 39.3989 67.4663 39.3989H74.6859C75.194 39.3989 75.6063 39.809 75.6063 40.3153C75.6063 40.8212 75.1944 41.2316 74.6859 41.2316H67.4663C66.9578 41.2316 66.5459 40.8215 66.5459 40.3153Z" fill="#223F72"/>
<path d="M85.7814 28.3351C85.2733 28.3351 84.8611 27.925 84.8611 27.4187V20.2308C84.8611 19.7249 85.273 19.3145 85.7814 19.3145C86.2895 19.3145 86.7018 19.7246 86.7018 20.2308V27.4191C86.7018 27.925 86.2895 28.3351 85.7814 28.3351Z" fill="#223F72"/>
<path d="M96.6822 39.3994C96.1741 39.3994 95.7618 38.9893 95.7618 38.483V31.2948C95.7618 30.7889 96.1737 30.3784 96.6822 30.3784C97.1903 30.3784 97.6025 30.7885 97.6025 31.2948V38.483C97.6025 38.9889 97.1903 39.3994 96.6822 39.3994Z" fill="#223F72"/>
<path d="M86.7019 18.3983C86.7019 17.8924 87.1138 17.4819 87.6223 17.4819H94.8419C95.35 17.4819 95.7623 17.892 95.7623 18.3983C95.7623 18.9042 95.3504 19.3146 94.8419 19.3146H87.6223C87.1138 19.3146 86.7019 18.9045 86.7019 18.3983Z" fill="#223F72"/>
<path d="M86.7019 29.4622C86.7019 28.9563 87.1138 28.5459 87.6223 28.5459H94.8419C95.35 28.5459 95.7623 28.956 95.7623 29.4622C95.7623 29.9681 95.3504 30.3786 94.8419 30.3786H87.6223C87.1138 30.3782 86.7019 29.9681 86.7019 29.4622Z" fill="#223F72"/>
<path d="M86.7019 40.3153C86.7019 39.8094 87.1138 39.3989 87.6223 39.3989H94.8419C95.35 39.3989 95.7623 39.809 95.7623 40.3153C95.7623 40.8212 95.3504 41.2316 94.8419 41.2316H87.6223C87.1138 41.2316 86.7019 40.8215 86.7019 40.3153Z" fill="#223F72"/>
<path d="M81.3269 40.3153C81.3269 39.8094 81.7388 39.3989 82.2473 39.3989C82.7554 39.3989 83.1676 39.809 83.1676 40.3153C83.1676 40.8212 82.7557 41.2316 82.2473 41.2316C81.7388 41.2316 81.3269 40.8215 81.3269 40.3153Z" fill="#223F72"/>
<defs>
<linearGradient id="paint0_linear" x1="14.6713" y1="44.0784" x2="117.988" y2="103.989" gradientUnits="userSpaceOnUse">
<stop stop-color="#F59037"/>
<stop offset="0.2892" stop-color="#F6993A"/>
<stop offset="0.7685" stop-color="#F9B343"/>
<stop offset="0.9944" stop-color="#FAC148"/>
</linearGradient>
</defs>
</svg>
