<svg width="130" height="124" viewBox="0 0 130 124" fill="none" xmlns="http://www.w3.org/2000/svg">
<path d="M130 74.1562C130 103.96 87.8063 90.0476 62.4593 107.93C31.0447 130.093 -17.5707 71.2032 6.43682 51.7537C40.1652 24.4296 23.9685 0 55.6526 0C87.3367 0 130 44.3519 130 74.1562Z" fill="url(#paint0_linear)"/>
<path d="M15.2113 40.328C14.1374 36.7368 16.167 32.9515 19.7447 31.8736L74.8356 15.2743C77.875 14.3586 81.0959 15.9941 82.1617 18.9946L110.204 97.9405C111.038 100.288 109.769 102.863 107.405 103.623L44.6081 123.799C42.3857 124.514 40.0123 123.259 39.3415 121.016L15.2113 40.328Z" fill="url(#paint1_linear)"/>
<path d="M19.6388 35.4502C19.3016 34.3466 20.0145 33.1987 21.1504 33.0185C28.685 31.8228 54.4923 27.369 74.6018 19.5813C75.519 19.2259 76.5469 19.6945 76.8792 20.6233L104.158 96.8836C104.532 97.9291 103.995 99.0816 102.956 99.4633C94.4526 102.586 59.3944 115.316 46.2777 117.811C45.4793 117.963 44.6964 117.486 44.458 116.706L19.6388 35.4502Z" fill="#B3CEFF"/>
<path opacity="0.78" d="M28.9331 37.883C28.2728 38.0568 27.9013 38.7597 28.1277 39.406L33.8654 55.7889C34.0561 56.3338 34.6323 56.6392 35.1878 56.4886C38.2794 55.6517 47.9015 53.0076 53.2105 51.1001C53.8113 50.8844 54.1456 50.2435 53.9826 49.6247C53.1537 46.4778 50.6667 37.3413 48.8257 33.7631C48.5281 33.1851 47.8696 32.8945 47.2429 33.0595L28.9331 37.883Z" fill="white"/>
<path d="M40.3301 45.9332C42.3819 45.9332 44.0452 44.2637 44.0452 42.2042C44.0452 40.1447 42.3819 38.4751 40.3301 38.4751C38.2783 38.4751 36.615 40.1447 36.615 42.2042C36.615 44.2637 38.2783 45.9332 40.3301 45.9332Z" fill="url(#paint2_linear)"/>
<path d="M36.8768 53.0959C36.6342 53.835 37.3187 54.5425 38.061 54.3187L49.397 50.9031C50.092 50.6938 50.2781 49.7978 49.7278 49.3229C48.3126 48.1007 45.6335 46.486 42.1746 47.6374C38.8412 48.7473 37.4484 51.3548 36.8768 53.0959Z" fill="url(#paint3_linear)"/>
<g opacity="0.6">
<path opacity="0.6" d="M73.1943 27.4034C73.9327 27.1807 74.4546 26.7501 74.354 26.4465C74.2534 26.1425 73.5637 26.0651 72.8213 26.2745L54.248 31.5103C53.5057 31.7196 53.1167 32.1914 53.3837 32.5583C53.6508 32.9252 54.4734 33.0438 55.2118 32.8214L73.1943 27.4034Z" fill="white"/>
</g>
<g opacity="0.6">
<path opacity="0.6" d="M55.1743 34.6083C54.432 34.8176 54.0429 35.2894 54.31 35.6563C54.5767 36.0236 55.3993 36.1418 56.1381 35.9194L74.1205 30.501C74.859 30.2783 75.3808 29.8477 75.2803 29.5441C75.1797 29.2402 74.4899 29.1628 73.7476 29.3721L55.1743 34.6083Z" fill="white"/>
</g>
<g opacity="0.6">
<path opacity="0.6" d="M56.114 37.7504C55.3717 37.9597 54.9826 38.4314 55.2497 38.7984C55.5164 39.1656 56.339 39.2838 57.0778 39.0615L75.0606 33.6431C75.799 33.4204 76.3209 32.9898 76.2203 32.6862C76.1197 32.3823 75.43 32.3049 74.6877 32.5142L56.114 37.7504Z" fill="white"/>
</g>
<g opacity="0.6">
<path opacity="0.6" d="M81.5219 48.2156C82.2604 47.9929 82.7731 47.5652 82.6613 47.2647C82.5495 46.9643 81.8524 46.8957 81.1122 47.1124L35.8519 60.3604C35.1117 60.5771 34.873 61.0102 35.3216 61.3226C35.7703 61.635 36.7414 61.7088 37.4799 61.4861L81.5219 48.2156Z" fill="white"/>
</g>
<g opacity="0.6">
<path opacity="0.6" d="M36.7783 63.4577C36.0381 63.6744 35.7994 64.1075 36.248 64.4199C36.6966 64.7323 37.6678 64.8062 38.4063 64.5835L82.4486 51.3133C83.1871 51.0906 83.6999 50.6628 83.5881 50.3624C83.4762 50.0619 82.7791 49.9933 82.0389 50.21L36.7783 63.4577Z" fill="white"/>
</g>
<path d="M41.5235 75.0189C41.0412 75.0505 40.5919 74.8022 40.4145 74.3754L39.0796 71.1709C38.9979 70.975 39.0007 70.7565 39.0873 70.5553C39.1836 70.3312 39.3768 70.1503 39.6168 70.0596C39.9414 69.9371 40.3858 69.7605 40.8751 69.5664C41.9409 69.1431 43.1493 68.6636 43.8752 68.435C44.4097 68.2665 44.9718 68.4533 45.2413 68.8891C45.6756 69.591 46.0881 71.0362 46.5076 72.5816C46.6492 73.1023 46.304 73.6599 45.7387 73.8242L41.7989 74.97C41.7068 74.9971 41.6142 75.0129 41.5235 75.0189ZM39.749 70.4135C39.6039 70.4684 39.4886 70.5746 39.4325 70.7051C39.3869 70.8114 39.3848 70.925 39.4265 71.0256L40.7615 74.2301C40.8989 74.5601 41.2995 74.7227 41.6938 74.6076L45.6339 73.4618C46.0033 73.3545 46.2325 73.0045 46.1445 72.6815C45.7324 71.1642 45.329 69.7475 44.9214 69.089C44.7451 68.8044 44.3525 68.6812 43.9873 68.7959C43.2741 69.0207 42.0204 69.5182 41.0128 69.9182C40.5218 70.113 40.0749 70.2904 39.749 70.4135Z" fill="white"/>
<g opacity="0.6">
<path opacity="0.6" d="M49.1843 69.0179C48.4451 69.2381 48.0894 69.8267 48.3939 70.3259C48.6985 70.8247 49.5498 71.0446 50.2858 70.8145L84.4135 60.1395C85.1495 59.9091 85.6458 59.392 85.5161 58.9902C85.3864 58.5885 84.6753 58.4397 83.9361 58.6602L49.1843 69.0179Z" fill="white"/>
</g>
<path d="M40.5855 71.0674C40.8259 70.8078 41.2318 70.7972 41.4852 71.0438L42.6772 72.2047C42.7963 72.3208 42.9968 72.2508 43.0185 72.0855L43.6561 67.2117C43.688 66.9686 44.0272 66.945 44.0942 67.1811C44.4674 68.5007 44.867 71.1026 43.4009 73.823C43.4009 73.823 42.114 73.7206 40.5743 71.9546C40.351 71.6996 40.3556 71.3157 40.5855 71.0674Z" fill="url(#paint4_linear)"/>
<path d="M44.0508 83.4708C43.5685 83.5025 43.1196 83.2541 42.9419 82.8277L41.6069 79.6232C41.5252 79.4272 41.528 79.2088 41.6146 79.0075C41.711 78.7834 41.9041 78.603 42.1442 78.5122C42.4687 78.3898 42.9131 78.2132 43.4021 78.0193C44.4682 77.5961 45.6763 77.1166 46.4025 76.8876C46.9377 76.7191 47.4992 76.9059 47.7687 77.3418C48.2026 78.0429 48.6155 79.4885 49.0353 81.0343C49.1766 81.5549 48.8317 82.1125 48.2664 82.2768L44.3266 83.4226C44.2341 83.449 44.1419 83.4648 44.0508 83.4708ZM42.2767 78.8654C42.1316 78.9203 42.0163 79.0265 41.9602 79.1571C41.9146 79.2633 41.9125 79.3769 41.9542 79.4775L43.2892 82.6821C43.4266 83.0117 43.8272 83.1739 44.2215 83.0596L48.1612 81.9137C48.5306 81.8065 48.7595 81.4564 48.6719 81.1335C48.2597 79.6158 47.856 78.1991 47.4487 77.5409C47.2724 77.2563 46.8799 77.1328 46.515 77.2479C45.8018 77.4726 44.5478 77.9704 43.5402 78.3704C43.0491 78.5653 42.6026 78.7423 42.2767 78.8654Z" fill="white"/>
<path opacity="0.6" d="M42.7904 79.0507C43.5986 78.7454 45.3377 78.0221 46.1855 77.7551C46.5448 77.6418 46.9261 77.7653 47.1045 78.0537C47.4508 78.6138 47.7925 79.8349 48.0992 80.9645C48.191 81.303 47.9639 81.6636 47.5878 81.773L44.4394 82.6887C44.0522 82.8013 43.6526 82.6338 43.5138 82.3003L42.447 79.7396C42.3366 79.4743 42.4908 79.164 42.7904 79.0507Z" fill="white"/>
<g opacity="0.6">
<path opacity="0.6" d="M51.7119 77.4695C50.9727 77.6898 50.617 78.2783 50.9215 78.7775C51.2261 79.2764 52.0774 79.4962 52.8134 79.2662L86.9411 68.5912C87.6771 68.3608 88.1733 67.8436 88.0437 67.4419C87.914 67.0401 87.2029 66.8913 86.4637 67.1119L51.7119 77.4695Z" fill="white"/>
</g>
<path d="M46.5785 91.922C46.0962 91.9537 45.6473 91.7053 45.4696 91.2789L44.1346 88.0741C44.0529 87.8781 44.0558 87.6596 44.1423 87.4584C44.2387 87.2343 44.4318 87.0538 44.6719 86.9631C44.9961 86.8407 45.4405 86.6644 45.9291 86.4702C46.9952 86.047 48.2037 85.5672 48.9302 85.3385C49.4647 85.1707 50.0269 85.3568 50.2964 85.7927C50.7306 86.4941 51.1431 87.9397 51.5627 89.4851C51.7039 90.0058 51.359 90.5634 50.7937 90.7277L46.854 91.8735C46.7618 91.9002 46.6696 91.916 46.5785 91.922ZM44.8044 87.3166C44.6593 87.3715 44.544 87.4778 44.4879 87.6083C44.4423 87.7145 44.4402 87.8282 44.4819 87.9288L45.8166 91.1333C45.954 91.4629 46.3552 91.6251 46.7488 91.5108L50.6889 90.365C51.0583 90.2577 51.2872 89.9076 51.1996 89.5847C50.7874 88.0674 50.384 86.6507 49.9768 85.9921C49.8008 85.7075 49.4079 85.5837 49.0427 85.6991C48.3295 85.9239 47.0751 86.4217 46.0675 86.8217C45.5761 87.0166 45.13 87.1935 44.8044 87.3166Z" fill="white"/>
<path opacity="0.6" d="M45.318 87.5024C46.1262 87.197 47.8653 86.4737 48.7131 86.2067C49.0724 86.0934 49.4537 86.2169 49.6321 86.5054C49.9784 87.0655 50.3201 88.2866 50.6267 89.4162C50.7186 89.7546 50.4915 90.1152 50.1154 90.2246L46.967 91.1403C46.5798 91.2529 46.1802 91.0855 46.0414 90.752L44.9746 88.1912C44.8642 87.926 45.0184 87.6157 45.318 87.5024Z" fill="white"/>
<g opacity="0.6">
<path opacity="0.6" d="M54.2392 85.9212C53.5 86.1414 53.1443 86.73 53.4489 87.2292C53.7534 87.728 54.6048 87.9479 55.3408 87.7178L89.4684 77.0429C90.2044 76.8124 90.7007 76.2953 90.571 75.8935C90.4413 75.4918 89.7302 75.343 88.991 75.5636L54.2392 85.9212Z" fill="white"/>
</g>
<path d="M49.1057 100.374C48.6234 100.406 48.1745 100.157 47.9964 99.7311L46.6615 96.5265C46.5798 96.3306 46.5826 96.1121 46.6692 95.9109C46.7656 95.6868 46.9587 95.5063 47.1988 95.4155C47.5229 95.2931 47.9674 95.1169 48.4559 94.9227C49.5221 94.4995 50.7305 94.0196 51.4571 93.7909C51.9919 93.6224 52.5537 93.8092 52.8232 94.2451C53.2575 94.9466 53.67 96.3921 54.0895 97.9376C54.2311 98.4582 53.8859 99.0158 53.3206 99.1801L49.3805 100.326C49.289 100.352 49.1968 100.368 49.1057 100.374ZM47.3316 95.7687C47.1865 95.8236 47.0712 95.9299 47.0151 96.0604C46.9695 96.1666 46.9671 96.2803 47.0091 96.3809L48.3438 99.5854C48.4812 99.915 48.8821 100.077 49.276 99.9629L53.2161 98.8171C53.5855 98.7098 53.8148 98.3594 53.7268 98.0364C53.3146 96.5191 52.9112 95.1024 52.5036 94.4439C52.3277 94.1593 51.9348 94.0358 51.5696 94.1508C50.8564 94.3756 49.602 94.8734 48.5944 95.2734C48.1037 95.4687 47.6575 95.6456 47.3316 95.7687Z" fill="white"/>
<path opacity="0.6" d="M47.8455 95.9541C48.6537 95.6487 50.3928 94.9254 51.2406 94.6584C51.5998 94.5451 51.9811 94.6686 52.1595 94.9567C52.5058 95.5168 52.8475 96.7379 53.1542 97.8675C53.246 98.2059 53.0189 98.5665 52.6428 98.6759L49.4945 99.5917C49.1072 99.7042 48.7077 99.5368 48.5689 99.2033L47.502 96.6425C47.392 96.3776 47.5458 96.0673 47.8455 95.9541Z" fill="white"/>
<g opacity="0.6">
<path opacity="0.6" d="M56.7669 94.3728C56.0278 94.5931 55.672 95.1816 55.9766 95.6808C56.2812 96.18 57.1325 96.3995 57.8685 96.1695L91.9961 85.4945C92.7321 85.2641 93.2284 84.747 93.0987 84.3452C92.969 83.9434 92.2579 83.7946 91.5187 84.0152L56.7669 94.3728Z" fill="white"/>
</g>
<path d="M47.4383 11.6133C45.0326 10.8232 43.3107 11.3723 42.2003 12.0999C41.1878 12.7637 40.7897 14.0576 41.2414 15.1837L43.4877 20.7805L49.9049 19.4538C49.9053 19.4542 52.1557 13.1626 47.4383 11.6133ZM46.0777 17.0845C45.2169 17.3438 44.3095 16.8537 44.0512 15.9897C43.7929 15.1257 44.2811 14.2149 45.1419 13.9556C46.0027 13.6963 46.9101 14.1864 47.1684 15.0504C47.427 15.9148 46.9385 16.8252 46.0777 17.0845Z" fill="url(#paint5_linear)"/>
<path d="M43.3555 18.2088C43.2766 18.2141 43.1999 18.1683 43.1687 18.0909L42.8108 17.1995C42.7719 17.1027 42.8185 16.9926 42.9149 16.9536C43.012 16.9149 43.121 16.9617 43.1599 17.0581L43.5178 17.9495C43.5567 18.0463 43.51 18.1564 43.4137 18.1954C43.3944 18.2032 43.3748 18.2074 43.3555 18.2088ZM42.6545 16.4621C42.5757 16.4674 42.4989 16.4217 42.4677 16.3443L42.1961 15.6674C41.7601 14.5811 42.1491 13.3297 43.1217 12.6923C43.8059 12.2437 44.5695 11.9788 45.3921 11.9046C45.4924 11.8923 45.587 11.9718 45.5965 12.0759C45.6059 12.1797 45.5295 12.2715 45.4258 12.281C44.6652 12.3496 43.9594 12.5945 43.3274 13.0085C42.5049 13.5478 42.1761 14.6064 42.5452 15.5263L42.8168 16.2032C42.8557 16.2999 42.8091 16.4101 42.7127 16.4491C42.6934 16.4565 42.6738 16.4607 42.6545 16.4621Z" fill="white"/>
<path d="M36.069 27.0704L35.2037 24.1768C34.9051 23.1781 35.4904 22.1294 36.4952 21.8641L56.5742 16.5594C57.4651 16.324 58.3886 16.8074 58.7058 17.676L59.7033 20.4063L36.069 27.0704Z" fill="url(#paint6_linear)"/>
<path d="M41.525 21.5645C41.4394 21.5701 41.3581 21.5163 41.3325 21.4304C41.3028 21.3305 41.3592 21.2253 41.4587 21.1951L42.3135 20.9375C42.4138 20.908 42.5179 20.9643 42.548 21.0642C42.5778 21.1641 42.5214 21.2693 42.4218 21.2995L41.567 21.5571C41.553 21.5609 41.539 21.5634 41.525 21.5645Z" fill="white"/>
<path d="M36.8401 25.8749C36.7545 25.8806 36.6732 25.8267 36.6476 25.7409L36.2975 24.5705C36.164 24.1244 36.2116 23.653 36.4317 23.2431C36.6515 22.8333 37.0174 22.5335 37.4618 22.3999L40.6042 21.4532C40.7041 21.4236 40.8085 21.4799 40.8387 21.5798C40.8685 21.6797 40.8121 21.7849 40.7125 21.8152L37.5701 22.7619C37.2221 22.8667 36.9354 23.1013 36.7633 23.4225C36.5912 23.7437 36.5537 24.1128 36.6582 24.4625L37.0083 25.6329C37.0381 25.7328 36.9817 25.838 36.8821 25.8682C36.8677 25.8714 36.8537 25.8739 36.8401 25.8749Z" fill="white"/>
<path d="M29.5249 27.888L64.2788 17.4153C65.5286 17.0389 66.8668 17.6193 67.4496 18.7912L67.5299 18.953C68.1681 20.2363 67.5001 21.7874 66.1315 22.2001L30.4758 32.9433C29.6567 33.1903 28.798 32.6995 28.5919 31.8661L28.1896 30.2411C27.9379 29.2248 28.5257 28.1891 29.5249 27.888Z" fill="#84A8F2"/>
<defs>
<linearGradient id="paint0_linear" x1="15.0178" y1="34.4945" x2="121.205" y2="95.5718" gradientUnits="userSpaceOnUse">
<stop stop-color="#F59037"/>
<stop offset="0.2892" stop-color="#F6993A"/>
<stop offset="0.7685" stop-color="#F9B343"/>
<stop offset="0.9944" stop-color="#FAC148"/>
</linearGradient>
<linearGradient id="paint1_linear" x1="82.8786" y1="14.6886" x2="29.6326" y2="156" gradientUnits="userSpaceOnUse">
<stop stop-color="#2B3582"/>
<stop offset="1" stop-color="#150E42"/>
</linearGradient>
<linearGradient id="paint2_linear" x1="42.685" y1="34.5423" x2="27.7328" y2="82.7201" gradientUnits="userSpaceOnUse">
<stop stop-color="#F59037"/>
<stop offset="0.2892" stop-color="#F6993A"/>
<stop offset="0.7685" stop-color="#F9B343"/>
<stop offset="0.9944" stop-color="#FAC148"/>
</linearGradient>
<linearGradient id="paint3_linear" x1="48.1942" y1="36.2524" x2="33.2421" y2="84.4299" gradientUnits="userSpaceOnUse">
<stop stop-color="#F59037"/>
<stop offset="0.2892" stop-color="#F6993A"/>
<stop offset="0.7685" stop-color="#F9B343"/>
<stop offset="0.9944" stop-color="#FAC148"/>
</linearGradient>
<linearGradient id="paint4_linear" x1="47.2277" y1="51.2319" x2="37.3748" y2="91.6265" gradientUnits="userSpaceOnUse">
<stop stop-color="#F59037"/>
<stop offset="0.2892" stop-color="#F6993A"/>
<stop offset="0.7685" stop-color="#F9B343"/>
<stop offset="0.9944" stop-color="#FAC148"/>
</linearGradient>
<linearGradient id="paint5_linear" x1="54.3199" y1="3.03751" x2="30.0051" y2="39.6635" gradientUnits="userSpaceOnUse">
<stop stop-color="#2B3582"/>
<stop offset="1" stop-color="#150E42"/>
</linearGradient>
<linearGradient id="paint6_linear" x1="54.5278" y1="2.7833" x2="39.0929" y2="43.8383" gradientUnits="userSpaceOnUse">
<stop stop-color="#2B3582"/>
<stop offset="1" stop-color="#150E42"/>
</linearGradient>
</defs>
</svg>
