<svg width="131" height="114" viewBox="0 0 131 114" fill="none" xmlns="http://www.w3.org/2000/svg">
<path d="M131 74.9167C131 105.026 88.4819 90.9711 62.9399 109.037C31.2836 131.427 -17.7057 71.9334 6.48646 52.2845C40.4743 24.6801 24.153 0 56.0808 0C88.0086 0 131 44.8067 131 74.9167Z" fill="url(#paint0_linear)"/>
<path d="M116.378 91.6086H17.7097V20.5953C17.7097 16.9098 20.6789 13.9219 24.3413 13.9219H109.747C113.41 13.9219 116.379 16.9098 116.379 20.5953V91.6086H116.378Z" fill="#223F72"/>
<path d="M118.628 104.08H15.46C11.3275 104.08 7.97729 100.708 7.97729 96.5495V91.6094H126.111V96.5495C126.111 100.708 122.761 104.08 118.628 104.08Z" fill="#4260A4"/>
<path d="M109.519 20.9736H24.5684V86.7024H109.519V20.9736Z" fill="#84A8F2"/>
<path d="M74.0554 95.6154H60.0909C58.9208 95.6154 57.9722 94.6608 57.9722 93.4833V91.5044H76.1741V93.4833C76.1741 94.6608 75.2259 95.6154 74.0554 95.6154Z" fill="#223F72"/>
<path d="M22.8385 37.1288L29.4115 33.3412C31.0223 32.4129 33.0018 32.4165 34.6092 33.3505L41.1687 37.1615C42.7848 38.1005 43.779 39.8366 43.7758 41.7146L43.7628 49.2758C43.7596 51.1538 42.759 52.8864 41.1397 53.8197L34.5668 57.6073C32.9559 58.5356 30.9764 58.532 29.3691 57.598L22.8095 53.787C21.1934 52.848 20.1992 51.1119 20.2024 49.2339L20.2155 41.6726C20.219 39.795 21.2192 38.0621 22.8385 37.1288Z" fill="#4260A4"/>
<path d="M33.2547 40.0724L34.4672 42.5443L37.1781 42.9406C38.3359 43.1097 38.7978 44.5413 37.9604 45.363L35.9989 47.2872L36.4619 50.0042C36.6597 51.1643 35.4497 52.0493 34.4142 51.5016L31.9896 50.2189L29.5651 51.5016C28.5296 52.0493 27.3196 51.1646 27.5174 50.0042L27.9804 47.2872L26.0188 45.363C25.1811 44.5413 25.6434 43.1097 26.8011 42.9406L29.5121 42.5443L30.7246 40.0724C31.2413 39.0169 32.737 39.0169 33.2547 40.0724Z" fill="url(#paint1_linear)"/>
<path d="M100.369 60.7538L106.941 56.9662C108.552 56.0379 110.532 56.0415 112.139 56.9755L118.699 60.7865C120.315 61.7255 121.309 63.4616 121.306 65.3396L121.293 72.9008C121.29 74.7788 120.289 76.5114 118.67 77.4447L112.097 81.2323C110.486 82.1606 108.506 82.157 106.899 81.223L100.34 77.412C98.7234 76.473 97.7293 74.7369 97.7324 72.8589L97.7455 65.2976C97.749 63.4197 98.7492 61.6867 100.369 60.7538Z" fill="#4260A4"/>
<path d="M110.785 63.6974L111.997 66.1693L114.708 66.5656C115.866 66.7347 116.328 68.1663 115.49 68.988L113.529 70.9122L113.992 73.6292C114.19 74.7893 112.98 75.6742 111.944 75.1266L109.52 73.8439L107.095 75.1266C106.06 75.6742 104.85 74.7896 105.047 73.6292L105.51 70.9122L103.549 68.988C102.711 68.1663 103.173 66.7347 104.331 66.5656L107.042 66.1693L108.255 63.6974C108.771 62.6419 110.267 62.6419 110.785 63.6974Z" fill="url(#paint2_linear)"/>
<path d="M15.0594 67.7092L19.3045 65.2629C20.345 64.6634 21.6235 64.6659 22.6615 65.269L26.8982 67.7302C27.9418 68.3365 28.5839 69.4582 28.5821 70.6708L28.5736 75.5544C28.5715 76.7671 27.9255 77.8866 26.8794 78.489L22.6343 80.9353C21.5938 81.5348 20.3153 81.5324 19.2773 80.9292L15.0406 78.468C13.997 77.8617 13.3549 76.7401 13.3567 75.5274L13.3652 70.6438C13.3673 69.4311 14.0136 68.312 15.0594 67.7092Z" fill="#4260A4"/>
<path d="M21.7867 69.6104L22.5697 71.2069L24.3204 71.4627C25.068 71.5722 25.3665 72.4966 24.8254 73.0272L23.5586 74.2701L23.8577 76.0247C23.9856 76.7739 23.204 77.3454 22.5351 76.9918L20.9691 76.1633L19.4031 76.9918C18.7345 77.3454 17.953 76.7743 18.0805 76.0247L18.3796 74.2701L17.1128 73.0272C16.5717 72.4966 16.8701 71.5719 17.6178 71.4627L19.3685 71.2069L20.1515 69.6104C20.4863 68.9287 21.4526 68.9287 21.7867 69.6104Z" fill="url(#paint3_linear)"/>
<path d="M115.396 27.969L119.641 25.5227C120.682 24.9231 121.96 24.9256 122.998 25.5287L127.235 27.9899C128.278 28.5963 128.92 29.7179 128.918 30.9306L128.91 35.8142C128.908 37.0268 128.262 38.1464 127.216 38.7488L122.97 41.195C121.93 41.7946 120.651 41.7921 119.614 41.189L115.377 38.7278C114.333 38.1215 113.691 36.9998 113.693 35.7872L113.701 30.9035C113.704 29.6909 114.35 28.5717 115.396 27.969Z" fill="#4260A4"/>
<path d="M122.123 29.8701L122.906 31.4666L124.657 31.7225C125.404 31.832 125.703 32.7564 125.162 33.287L123.895 34.5299L124.194 36.2845C124.322 37.0337 123.54 37.6052 122.872 37.2516L121.306 36.4231L119.74 37.2516C119.071 37.6052 118.289 37.0341 118.417 36.2845L118.716 34.5299L117.449 33.287C116.908 32.7564 117.207 31.8316 117.954 31.7225L119.705 31.4666L120.488 29.8701C120.823 29.1885 121.789 29.1885 122.123 29.8701Z" fill="url(#paint4_linear)"/>
<path d="M87.2997 82.5102H53.2186C51.0628 82.5102 49.3149 80.7513 49.3149 78.5819V28.3122C49.3149 26.6486 50.6552 25.2998 52.3085 25.2998H87.566C89.5745 25.2998 91.203 26.9386 91.203 28.9598V78.5819C91.2034 80.7513 89.4555 82.5102 87.2997 82.5102Z" fill="#4260A4"/>
<path d="M77.678 41.5122H49.3152V68.4523H77.678V41.5122Z" fill="#A4C5FF"/>
<path d="M59.707 73.0991H49.3152V71.2119H59.707C60.0832 71.2119 60.388 71.5186 60.388 71.8971V72.4142C60.3876 72.7924 60.0828 73.0991 59.707 73.0991Z" fill="#A4C5FF"/>
<path d="M72.1813 25.377H52.8072C50.6101 25.377 48.8025 27.154 48.5733 29.2864H45.9524C44.7502 29.2864 43.7754 30.0314 43.7754 31.2412C43.7754 32.451 44.7502 33.1959 45.9524 33.1959H48.5475H72.1813V25.377Z" fill="#223F72"/>
<path d="M68.2964 25.377H87.4678C89.6649 25.377 91.4725 27.154 91.7017 29.2864H94.3226C95.5248 29.2864 96.4996 30.0314 96.4996 31.2412C96.4996 32.451 95.5248 33.1959 94.3226 33.1959H91.7275H68.2964V25.377Z" fill="#223F72"/>
<path d="M70.284 73.099H62.2764C61.9002 73.099 61.5955 72.7923 61.5955 72.4138V71.8966C61.5955 71.5181 61.9002 71.2114 62.2764 71.2114H70.284C70.6601 71.2114 70.9649 71.5181 70.9649 71.8966V72.4138C70.9649 72.7923 70.6601 73.099 70.284 73.099Z" fill="#A4C5FF"/>
<path d="M76.9975 73.099H73.4739C73.0978 73.099 72.793 72.7923 72.793 72.4138V71.8966C72.793 71.5181 73.0978 71.2114 73.4739 71.2114H76.9975C77.3737 71.2114 77.6784 71.5181 77.6784 71.8966V72.4138C77.6781 72.7923 77.3733 73.099 76.9975 73.099Z" fill="#A4C5FF"/>
<path d="M61.9774 76.4954C73.8562 76.4954 83.4858 74.4192 83.4858 71.858C83.4858 69.2969 73.8562 67.2207 61.9774 67.2207C50.0986 67.2207 40.469 69.2969 40.469 71.858C40.469 74.4192 50.0986 76.4954 61.9774 76.4954Z" stroke="white" stroke-width="2" stroke-miterlimit="10"/>
<defs>
<linearGradient id="paint0_linear" x1="15.1334" y1="34.8482" x2="122.272" y2="96.3166" gradientUnits="userSpaceOnUse">
<stop stop-color="#F59037"/>
<stop offset="0.2892" stop-color="#F6993A"/>
<stop offset="0.7685" stop-color="#F9B343"/>
<stop offset="0.9944" stop-color="#FAC148"/>
</linearGradient>
<linearGradient id="paint1_linear" x1="25.5903" y1="45.4744" x2="38.3877" y2="45.4744" gradientUnits="userSpaceOnUse">
<stop stop-color="#F59037"/>
<stop offset="0.2892" stop-color="#F6993A"/>
<stop offset="0.7685" stop-color="#F9B343"/>
<stop offset="0.9944" stop-color="#FAC148"/>
</linearGradient>
<linearGradient id="paint2_linear" x1="103.121" y1="69.0991" x2="115.918" y2="69.0991" gradientUnits="userSpaceOnUse">
<stop stop-color="#F59037"/>
<stop offset="0.2892" stop-color="#F6993A"/>
<stop offset="0.7685" stop-color="#F9B343"/>
<stop offset="0.9944" stop-color="#FAC148"/>
</linearGradient>
<linearGradient id="paint3_linear" x1="16.8368" y1="73.0994" x2="25.1022" y2="73.0994" gradientUnits="userSpaceOnUse">
<stop stop-color="#F59037"/>
<stop offset="0.2892" stop-color="#F6993A"/>
<stop offset="0.7685" stop-color="#F9B343"/>
<stop offset="0.9944" stop-color="#FAC148"/>
</linearGradient>
<linearGradient id="paint4_linear" x1="117.173" y1="33.3591" x2="125.439" y2="33.3591" gradientUnits="userSpaceOnUse">
<stop stop-color="#F59037"/>
<stop offset="0.2892" stop-color="#F6993A"/>
<stop offset="0.7685" stop-color="#F9B343"/>
<stop offset="0.9944" stop-color="#FAC148"/>
</linearGradient>
</defs>
</svg>
