<svg width="131" height="125" viewBox="0 0 131 125" fill="none" xmlns="http://www.w3.org/2000/svg">
<path d="M131 85.3592C131 115.237 88.4819 101.29 62.9398 119.217C31.2836 141.434 -17.7057 82.3986 6.48646 62.9014C40.474 35.5099 24.153 11.02 56.0808 11.02C88.0086 11.02 131 55.4813 131 85.3592Z" fill="url(#paint0_linear)"/>
<path d="M111.064 105.861V38.6886C111.064 26.7826 101.398 17.1309 89.475 17.1309H85.975L78.019 35.3334L80.012 79.0184H105.814L106.664 106.748L111.064 105.861Z" fill="#223F72"/>
<path d="M106.154 91.2173L106.631 106.756L111.031 105.861V91.2173H106.154Z" fill="#172E4F"/>
<path d="M17.0796 107.313C17.1286 107.294 43.4632 61.2425 47.0218 56.9089C47.6204 56.1799 48.5472 55.8089 49.4845 55.9204L56.8348 56.795L65.4699 75.4489L51.084 67.083C52.5077 76.9139 34.0267 91.5234 27.6886 96.8543C27.0455 97.3953 26.9925 98.3644 27.5735 98.9717L30.1036 101.617C25.9496 105.822 21.1559 108.521 15.7456 109.77L17.0796 107.313Z" fill="url(#paint1_linear)"/>
<path d="M28.6405 100.189C28.6405 100.189 30.2555 100.71 30.8023 102.147C31.064 102.834 30.7818 103.612 30.1835 104.041C27.5244 105.943 18.7526 112.085 14.7052 113.288C14.3736 113.386 14.0578 113.086 14.1324 112.749C14.34 111.81 15.0121 109.935 17.1767 107.19L16.9825 107.582C16.7367 108.079 17.2781 108.595 17.7609 108.323C20.468 106.797 25.9825 103.457 28.6405 100.189Z" fill="url(#paint2_linear)"/>
<path d="M27.3372 118.616C27.3814 118.588 31.3324 109.082 31.3765 109.054C34.999 87.0293 43.8376 68.1669 46.444 63.2039C46.8827 62.3691 47.7148 61.8182 48.6556 61.7382L56.031 61.1094L68.2682 77.6325L52.4844 72.3467C55.871 81.6864 40.7335 99.7284 35.6068 106.23C35.0866 106.89 35.2311 107.849 35.9233 108.326L38.9373 110.405C35.7213 115.362 31.5739 118.976 26.5288 121.291L27.3372 118.616Z" fill="url(#paint3_linear)"/>
<path d="M37.215 109.303C37.215 109.303 38.9021 109.487 39.7285 110.783C40.1241 111.403 40.0054 112.222 39.5064 112.763C37.2877 115.163 29.9424 122.95 26.2224 124.946C25.9172 125.11 25.5475 124.88 25.552 124.535C25.5651 123.573 25.8431 121.601 27.4069 118.475L27.2964 118.899C27.1565 119.434 27.7912 119.831 28.209 119.467C30.5509 117.425 35.2743 113.04 37.215 109.303Z" fill="url(#paint4_linear)"/>
<path d="M90.5558 57.6294C90.5558 57.6294 97.228 67.5389 97.7755 72.0594C98.3229 76.5799 95.9305 78.1429 88.9471 78.7195C68.1652 80.4352 57.9206 74.2156 57.9206 74.2156C56.4991 65.1644 55.4876 62.8619 43.6145 57.9404C43.6145 57.9404 58.6319 59.131 61.654 57.9598C64.6762 56.789 90.5558 57.6294 90.5558 57.6294Z" fill="#4260A4"/>
<path d="M63.9492 2.10907C63.9492 2.10907 68.5963 -3.38123 73.5369 3.35469C74.4315 4.57492 77.8686 3.56841 79.1284 6.12206C79.7789 7.44068 81.1838 8.18974 82.6315 7.92313C86.2367 7.25906 92.1291 7.20334 95.0386 12.8446C97.2593 17.1506 95.5447 19.6708 93.325 21.1072C91.6944 22.1624 91.1127 24.3048 92.0984 25.9765C93.0442 27.58 93.2218 29.7514 90.78 32.3646C85.3079 38.221 74.476 28.6483 74.476 28.6483L65.8758 8.35479L63.9492 2.10907Z" fill="url(#paint5_linear)"/>
<path d="M72.5112 56.3175C72.5112 56.3175 64.7417 48.9299 60.9168 44.0366C58.8493 41.3916 58.2002 37.9094 59.1563 34.6927C60.9024 28.8184 64.0057 22.7342 64.2886 21.7873C64.7223 20.3357 73.4345 20.3964 73.4345 20.3964C73.4345 20.3964 90.578 31.5064 97.3137 50.3264L89.7491 52.678C89.7491 52.678 85.2729 45.1793 80.8501 40.4116C80.8501 40.4116 88.5031 50.5066 88.7725 54.6392L72.5112 56.3175Z" fill="#84A8F2"/>
<path d="M57.7075 59.2332L63.5459 52.8902L70.2884 54.7032C70.2884 54.7032 78.149 55.9192 82.6481 54.7032C87.1472 53.4873 87.1472 53.4873 87.1472 53.4873L97.3141 50.3267L98.9108 54.8327C99.3162 55.9767 98.909 57.247 97.9184 57.9499C97.0386 58.5741 96.0077 59.2601 95.3504 59.5471C94.0115 60.1318 64.5083 59.7319 64.5083 59.7319L57.7075 59.2332Z" fill="url(#paint6_linear)"/>
<path d="M67.4471 9.93636L73.3024 20.8087C72.9157 23.1821 66.9297 23.2488 66.0048 21.8318C65.9105 21.6875 65.8568 21.5207 65.8211 21.3522L62.3183 14.0876C62.1679 13.3791 64.1128 10.9922 64.7528 10.6519L67.0802 9.41476C67.9766 8.93902 64.2371 8.90163 67.4471 9.93636Z" fill="url(#paint7_linear)"/>
<path d="M55.597 7.38432C55.597 7.38432 54.9362 11.0577 57.8273 15.728C60.7184 20.3984 63.5979 20.1875 65.0607 18.5219C66.5236 16.8562 68.2757 14.0822 67.4785 9.42414C66.6811 4.76578 56.5954 2.70021 55.597 7.38432Z" fill="url(#paint8_linear)"/>
<path d="M63.9778 9.93053C63.9778 9.93053 59.2961 3.78991 55.7015 9.14303L55.7622 10.9924C55.7622 10.9924 51.088 10.7741 51.5951 6.47229C52.1019 2.17047 55.918 -0.768299 61.2082 0.701261C66.4984 2.17117 69.5894 3.84493 70.187 7.51265C70.7846 11.1804 67.7854 10.5812 67.7854 10.5812C67.7854 10.5812 66.6397 8.05047 65.2563 7.87766C63.8729 7.70486 64.373 9.70659 64.373 9.70659L63.9778 9.93053Z" fill="url(#paint9_linear)"/>
<path d="M65.0521 9.76703C65.0521 9.76703 62.6268 6.62443 64.8345 5.97235C67.0423 5.31991 66.9596 9.05147 66.8159 10.4396L65.0521 9.76703Z" fill="url(#paint10_linear)"/>
<path d="M77.0325 61.7432C77.012 61.7443 76.9915 61.7446 76.9707 61.7446L50.1173 61.7154C49.4533 61.715 48.9158 61.1769 48.9165 60.5142C48.9172 59.8512 49.4579 59.3031 50.1198 59.3151L76.9731 59.3444C77.6368 59.3451 78.1746 59.8829 78.1739 60.5459C78.1732 61.1881 77.6675 61.7122 77.0325 61.7432Z" fill="#223F72"/>
<path d="M25.9778 37.3975H48.3412C49.9909 37.3975 51.4926 38.3482 52.1961 39.8383L62.535 61.729H34.7433C33.6802 61.729 32.7249 61.0804 32.3342 60.0929L24.3171 39.8361C23.8534 38.6656 24.7173 37.3975 25.9778 37.3975Z" fill="#223F72"/>
<path d="M41.733 48.6212C42.2176 50.1247 41.8598 51.5851 40.9334 51.8827C40.0071 52.1804 38.8635 51.2031 38.3789 49.6993C37.8944 48.1959 38.2521 46.7359 39.1785 46.4382C40.1049 46.1402 41.2485 47.1178 41.733 48.6212Z" fill="url(#paint11_linear)"/>
<path d="M61.9941 120.381H58.7244V85.0403L60.3218 81.7094L62.259 79.0186H63.5456L61.9941 120.381Z" fill="#223F72"/>
<path d="M98.7096 119.969H95.4399V77.394H100.261L98.7096 119.969Z" fill="#223F72"/>
<path d="M74.2006 113.464L70.7324 114.86V77.394H75.554L74.2006 113.464Z" fill="#172E4F"/>
<path d="M110.099 91.2005H58.7244V84.9323C58.7244 80.7691 62.1043 77.394 66.2735 77.394H110.099V91.2005Z" fill="#223F72"/>
<defs>
<linearGradient id="paint0_linear" x1="15.1334" y1="45.5996" x2="121.86" y2="107.307" gradientUnits="userSpaceOnUse">
<stop stop-color="#F59037"/>
<stop offset="0.2892" stop-color="#F6993A"/>
<stop offset="0.7685" stop-color="#F9B343"/>
<stop offset="0.9944" stop-color="#FAC148"/>
</linearGradient>
<linearGradient id="paint1_linear" x1="37.7191" y1="84.8831" x2="21.6358" y2="66.8125" gradientUnits="userSpaceOnUse">
<stop stop-color="#F9B776"/>
<stop offset="1" stop-color="#F47960"/>
</linearGradient>
<linearGradient id="paint2_linear" x1="86.4652" y1="1285.98" x2="89.1159" y2="1334.96" gradientUnits="userSpaceOnUse">
<stop stop-color="#FDF53F"/>
<stop offset="0.6645" stop-color="#E57A58"/>
<stop offset="1" stop-color="#D93C65"/>
</linearGradient>
<linearGradient id="paint3_linear" x1="14.7841" y1="74.6373" x2="-127.155" y2="-14.3473" gradientUnits="userSpaceOnUse">
<stop stop-color="#F9B776"/>
<stop offset="1" stop-color="#F47960"/>
</linearGradient>
<linearGradient id="paint4_linear" x1="590.979" y1="2230.61" x2="603.474" y2="2278.04" gradientUnits="userSpaceOnUse">
<stop stop-color="#FDF53F"/>
<stop offset="0.6645" stop-color="#E57A58"/>
<stop offset="1" stop-color="#D93C65"/>
</linearGradient>
<linearGradient id="paint5_linear" x1="56.8343" y1="-11.6698" x2="74.8561" y2="9.16548" gradientUnits="userSpaceOnUse">
<stop stop-color="#2B3582"/>
<stop offset="1" stop-color="#150E42"/>
</linearGradient>
<linearGradient id="paint6_linear" x1="83.485" y1="55.0961" x2="124.843" y2="55.0961" gradientUnits="userSpaceOnUse">
<stop stop-color="#F9B776"/>
<stop offset="1" stop-color="#F47960"/>
</linearGradient>
<linearGradient id="paint7_linear" x1="66.6517" y1="35.3569" x2="67.605" y2="20.481" gradientUnits="userSpaceOnUse">
<stop stop-color="#F9B776"/>
<stop offset="1" stop-color="#F47960"/>
</linearGradient>
<linearGradient id="paint8_linear" x1="68.0597" y1="22.77" x2="50.1041" y2="-11.6423" gradientUnits="userSpaceOnUse">
<stop stop-color="#F9B776"/>
<stop offset="1" stop-color="#F47960"/>
</linearGradient>
<linearGradient id="paint9_linear" x1="45.5739" y1="3.26614" x2="70.7714" y2="8.32922" gradientUnits="userSpaceOnUse">
<stop stop-color="#2B3582"/>
<stop offset="1" stop-color="#150E42"/>
</linearGradient>
<linearGradient id="paint10_linear" x1="72.1787" y1="20.6207" x2="54.2234" y2="-13.791" gradientUnits="userSpaceOnUse">
<stop stop-color="#F9B776"/>
<stop offset="1" stop-color="#F47960"/>
</linearGradient>
<linearGradient id="paint11_linear" x1="43.025" y1="44.696" x2="36.0734" y2="55.1795" gradientUnits="userSpaceOnUse">
<stop stop-color="#F59037"/>
<stop offset="0.2892" stop-color="#F6993A"/>
<stop offset="0.7685" stop-color="#F9B343"/>
<stop offset="0.9944" stop-color="#FAC148"/>
</linearGradient>
</defs>
</svg>
