<svg width="61" height="52" viewBox="0 0 61 52" fill="none" xmlns="http://www.w3.org/2000/svg">
<path d="M60.9999 34.1725C60.9999 47.9068 41.2014 41.4956 29.3077 49.7362C14.5671 59.9491 -8.24478 32.8117 3.02029 23.8491C18.8467 11.2576 11.2467 0 26.1138 0C40.981 0 60.9999 20.4382 60.9999 34.1725Z" fill="url(#paint0_linear)"/>
<path d="M54.1913 41.7864H8.24646V9.39437C8.24646 7.71324 9.62904 6.35034 11.3344 6.35034H51.1037C52.8091 6.35034 54.1917 7.71324 54.1917 9.39437V41.7864H54.1913Z" fill="#223F72"/>
<path d="M55.239 47.475H7.1988C5.27451 47.475 3.71448 45.9372 3.71448 44.0403V41.7869H58.7235V44.0403C58.7233 45.9372 57.1633 47.475 55.239 47.475Z" fill="#4260A4"/>
<path d="M50.9976 9.56714H11.4403V39.5487H50.9976V9.56714Z" fill="#B3CEFF"/>
<path d="M34.4838 43.614H27.9812C27.4364 43.614 26.9946 43.1785 26.9946 42.6414V41.7388H35.4704V42.6414C35.4704 43.1785 35.0288 43.614 34.4838 43.614Z" fill="#223F72"/>
<path d="M24.4853 17.7381L29.5749 14.8651C30.8221 14.161 32.355 14.1636 33.5996 14.872L38.6789 17.7627C39.9302 18.4749 40.7 19.7919 40.6975 21.2163L40.6874 26.9517C40.6849 28.3761 39.9103 29.6905 38.6563 30.3983L33.5667 33.2713C32.3195 33.9753 30.7866 33.9728 29.542 33.2643L24.4628 30.3736C23.2114 29.6615 22.4416 28.3445 22.4441 26.9201L22.4543 21.1846C22.4569 19.7603 23.2313 18.4459 24.4853 17.7381Z" fill="#4260A4"/>
<path d="M36.3257 20.669C36.306 20.5297 36.2044 20.4154 36.0672 20.3778L31.6667 19.1713C31.604 19.1542 31.5376 19.1542 31.4749 19.1713L27.0744 20.3778C26.9373 20.4154 26.8356 20.5299 26.8159 20.669C26.7906 20.8499 26.2081 25.1244 27.7015 27.251C29.1933 29.375 31.3938 29.9192 31.4868 29.9413C31.5142 29.9479 31.5424 29.9512 31.5706 29.9512C31.5991 29.9512 31.6272 29.9479 31.6547 29.9413C31.7476 29.9192 33.9482 29.375 35.44 27.251C36.9335 25.1245 36.3512 20.8499 36.3257 20.669ZM34.4087 23.1646L31.407 26.1233C31.3371 26.1922 31.2455 26.2266 31.1541 26.2266C31.0625 26.2266 30.9709 26.1922 30.901 26.1233L29.0451 24.2938C28.978 24.2279 28.9403 24.1381 28.9403 24.0444C28.9403 23.951 28.978 23.8612 29.0451 23.795L29.4136 23.4317C29.5534 23.2941 29.78 23.2941 29.9195 23.4317L31.1539 24.6486L33.5341 22.3024C33.6012 22.2363 33.692 22.1992 33.787 22.1992C33.8819 22.1992 33.9728 22.2364 34.0399 22.3024L34.4085 22.6657C34.5483 22.8035 34.5483 23.0268 34.4087 23.1646Z" fill="black"/>
<defs>
<linearGradient id="paint0_linear" x1="7.04673" y1="15.8957" x2="56.4207" y2="44.8134" gradientUnits="userSpaceOnUse">
<stop stop-color="#F59037"/>
<stop offset="0.2892" stop-color="#F6993A"/>
<stop offset="0.7685" stop-color="#F9B343"/>
<stop offset="0.9944" stop-color="#FAC148"/>
</linearGradient>
</defs>
</svg>
