<svg width="61" height="52" viewBox="0 0 61 52" fill="none" xmlns="http://www.w3.org/2000/svg">
<path d="M60.9999 34.1725C60.9999 47.9068 41.2014 41.4956 29.3077 49.7362C14.5671 59.9491 -8.24478 32.8117 3.02029 23.8491C18.8467 11.2576 11.2467 0 26.1138 0C40.981 0 60.9999 20.4382 60.9999 34.1725Z" fill="#DDDDDD"/>
<path d="M54.1913 41.7864H8.24646V9.39437C8.24646 7.71324 9.62904 6.35034 11.3344 6.35034H51.1037C52.8091 6.35034 54.1917 7.71324 54.1917 9.39437V41.7864H54.1913Z" fill="#7B7B7B"/>
<path d="M55.2391 47.4747H7.19893C5.27463 47.4747 3.7146 45.9369 3.7146 44.04V41.7866H58.7236V44.04C58.7235 45.9369 57.1634 47.4747 55.2391 47.4747Z" fill="#B2B2B2"/>
<path d="M50.9973 9.56714H11.4401V39.5487H50.9973V9.56714Z" fill="#FCFCFC"/>
<path d="M34.4839 43.614H27.9813C27.4365 43.614 26.9948 43.1785 26.9948 42.6414V41.7388H35.4705V42.6414C35.4705 43.1785 35.0289 43.614 34.4839 43.614Z" fill="#7B7B7B"/>
<path d="M24.485 17.7383L29.5745 14.8653C30.8218 14.1613 32.3547 14.1639 33.5993 14.8723L38.6785 17.763C39.9298 18.4751 40.6997 19.7922 40.6972 21.2165L40.687 26.952C40.6845 28.3763 39.9099 29.6907 38.656 30.3985L33.5664 33.2715C32.3191 33.9756 30.7863 33.973 29.5416 33.2646L24.4624 30.3739C23.2111 29.6617 22.4413 28.3447 22.4437 26.9204L22.4539 21.1849C22.4566 19.7605 23.231 18.4461 24.485 17.7383Z" fill="#B8B8B8"/>
<path d="M36.3256 20.669C36.3059 20.5297 36.2042 20.4154 36.0671 20.3778L31.6666 19.1713C31.6039 19.1542 31.5375 19.1542 31.4748 19.1713L27.0743 20.3778C26.9371 20.4154 26.8355 20.5299 26.8158 20.669C26.7904 20.8499 26.2079 25.1244 27.7014 27.251C29.1931 29.375 31.3937 29.9192 31.4866 29.9413C31.5141 29.9479 31.5422 29.9512 31.5705 29.9512C31.599 29.9512 31.6271 29.9479 31.6545 29.9413C31.7475 29.9192 33.948 29.375 35.4398 27.251C36.9334 25.1245 36.3511 20.8499 36.3256 20.669ZM34.4085 23.1646L31.4069 26.1233C31.337 26.1922 31.2454 26.2266 31.1539 26.2266C31.0623 26.2266 30.9707 26.1922 30.9008 26.1233L29.045 24.2938C28.9779 24.2279 28.9402 24.1381 28.9402 24.0444C28.9402 23.951 28.9779 23.8612 29.045 23.795L29.4135 23.4317C29.5533 23.2941 29.7799 23.2941 29.9194 23.4317L31.1538 24.6486L33.534 22.3024C33.601 22.2363 33.6918 22.1992 33.7869 22.1992C33.8818 22.1992 33.9727 22.2364 34.0398 22.3024L34.4084 22.6657C34.5482 22.8035 34.5481 23.0268 34.4085 23.1646Z" fill="#CACACA"/>
</svg>
